<mxfile host="app.diagrams.net" agent="Mozilla/5.0 (Windows NT 10.0; Win64; x64) AppleWebKit/537.36 (KHTML, like Gecko) Chrome/132.0.0.0 YaBrowser/25.2.0.0 Safari/537.36" version="25.0.1">
  <diagram name="Page-1" id="929967ad-93f9-6ef4-fab6-5d389245f69c">
    <mxGraphModel grid="1" page="1" gridSize="10" guides="1" tooltips="1" connect="1" arrows="1" fold="1" pageScale="1.5" pageWidth="1169" pageHeight="826" background="none" math="0" shadow="0">
      <root>
        <mxCell id="0" style=";html=1;" />
        <mxCell id="1" style=";html=1;" parent="0" />
        <mxCell id="GdL6Ldw19PfFGsnGd9zg-28" value="&lt;font style=&quot;font-size: 18px;&quot;&gt;ИС мероприятий по ИБ&lt;/font&gt;" style="swimlane;whiteSpace=wrap;html=1;startSize=46;" vertex="1" parent="1">
          <mxGeometry x="320" y="140" width="950" height="770" as="geometry" />
        </mxCell>
        <mxCell id="GdL6Ldw19PfFGsnGd9zg-65" value="Запоминание учетных данных пользователя" style="ellipse;whiteSpace=wrap;html=1;" vertex="1" parent="GdL6Ldw19PfFGsnGd9zg-28">
          <mxGeometry x="230" y="105" width="116.67" height="70" as="geometry" />
        </mxCell>
        <mxCell id="GdL6Ldw19PfFGsnGd9zg-34" value="Авторизация в системе" style="ellipse;whiteSpace=wrap;html=1;" vertex="1" parent="GdL6Ldw19PfFGsnGd9zg-28">
          <mxGeometry x="430" y="105" width="116.67" height="70" as="geometry" />
        </mxCell>
        <mxCell id="GdL6Ldw19PfFGsnGd9zg-39" value="Просмотр мероприятий" style="ellipse;whiteSpace=wrap;html=1;" vertex="1" parent="GdL6Ldw19PfFGsnGd9zg-28">
          <mxGeometry x="220" y="600" width="116.67" height="70" as="geometry" />
        </mxCell>
        <mxCell id="GdL6Ldw19PfFGsnGd9zg-43" style="edgeStyle=orthogonalEdgeStyle;rounded=0;orthogonalLoop=1;jettySize=auto;html=1;exitX=1;exitY=0.5;exitDx=0;exitDy=0;dashed=1;" edge="1" parent="GdL6Ldw19PfFGsnGd9zg-28" source="GdL6Ldw19PfFGsnGd9zg-40" target="GdL6Ldw19PfFGsnGd9zg-39">
          <mxGeometry relative="1" as="geometry" />
        </mxCell>
        <mxCell id="GdL6Ldw19PfFGsnGd9zg-44" value="extend" style="edgeLabel;html=1;align=center;verticalAlign=middle;resizable=0;points=[];" connectable="0" vertex="1" parent="GdL6Ldw19PfFGsnGd9zg-43">
          <mxGeometry x="-0.0924" y="2" relative="1" as="geometry">
            <mxPoint y="-6" as="offset" />
          </mxGeometry>
        </mxCell>
        <mxCell id="GdL6Ldw19PfFGsnGd9zg-40" value="Фильтрация" style="ellipse;whiteSpace=wrap;html=1;" vertex="1" parent="GdL6Ldw19PfFGsnGd9zg-28">
          <mxGeometry x="30" y="600" width="116.67" height="70" as="geometry" />
        </mxCell>
        <mxCell id="GdL6Ldw19PfFGsnGd9zg-47" style="edgeStyle=orthogonalEdgeStyle;rounded=0;orthogonalLoop=1;jettySize=auto;html=1;entryX=0.5;entryY=0;entryDx=0;entryDy=0;endArrow=block;endFill=0;exitX=0.5;exitY=1;exitDx=0;exitDy=0;" edge="1" parent="GdL6Ldw19PfFGsnGd9zg-28" source="GdL6Ldw19PfFGsnGd9zg-41" target="GdL6Ldw19PfFGsnGd9zg-40">
          <mxGeometry relative="1" as="geometry">
            <Array as="points">
              <mxPoint x="88" y="560" />
              <mxPoint x="88" y="580" />
            </Array>
          </mxGeometry>
        </mxCell>
        <mxCell id="GdL6Ldw19PfFGsnGd9zg-41" value="Фильтровать по дате" style="ellipse;whiteSpace=wrap;html=1;" vertex="1" parent="GdL6Ldw19PfFGsnGd9zg-28">
          <mxGeometry x="30" y="510" width="116.67" height="70" as="geometry" />
        </mxCell>
        <mxCell id="GdL6Ldw19PfFGsnGd9zg-46" style="edgeStyle=orthogonalEdgeStyle;rounded=0;orthogonalLoop=1;jettySize=auto;html=1;entryX=0.5;entryY=1;entryDx=0;entryDy=0;endArrow=block;endFill=0;" edge="1" parent="GdL6Ldw19PfFGsnGd9zg-28" source="GdL6Ldw19PfFGsnGd9zg-42" target="GdL6Ldw19PfFGsnGd9zg-40">
          <mxGeometry relative="1" as="geometry" />
        </mxCell>
        <mxCell id="GdL6Ldw19PfFGsnGd9zg-42" value="Фильтровать по нарпавлению" style="ellipse;whiteSpace=wrap;html=1;" vertex="1" parent="GdL6Ldw19PfFGsnGd9zg-28">
          <mxGeometry x="30.00000000000003" y="690" width="116.67" height="70" as="geometry" />
        </mxCell>
        <mxCell id="GdL6Ldw19PfFGsnGd9zg-58" value="Просмотр профиля" style="ellipse;whiteSpace=wrap;html=1;" vertex="1" parent="GdL6Ldw19PfFGsnGd9zg-28">
          <mxGeometry x="440" y="243" width="116.67" height="70" as="geometry" />
        </mxCell>
        <mxCell id="GdL6Ldw19PfFGsnGd9zg-64" value="Редактирование профиля" style="ellipse;whiteSpace=wrap;html=1;" vertex="1" parent="GdL6Ldw19PfFGsnGd9zg-28">
          <mxGeometry x="230" y="210" width="116.67" height="70" as="geometry" />
        </mxCell>
        <mxCell id="GdL6Ldw19PfFGsnGd9zg-48" style="edgeStyle=orthogonalEdgeStyle;rounded=0;orthogonalLoop=1;jettySize=auto;html=1;entryX=0.5;entryY=1;entryDx=0;entryDy=0;endArrow=none;endFill=0;fillColor=#f5f5f5;strokeColor=#666666;" edge="1" parent="GdL6Ldw19PfFGsnGd9zg-28" source="GdL6Ldw19PfFGsnGd9zg-29" target="GdL6Ldw19PfFGsnGd9zg-39">
          <mxGeometry relative="1" as="geometry" />
        </mxCell>
        <mxCell id="GdL6Ldw19PfFGsnGd9zg-29" value="Внешний пользователь" style="shape=umlActor;verticalLabelPosition=bottom;verticalAlign=top;html=1;outlineConnect=0;" vertex="1" parent="GdL6Ldw19PfFGsnGd9zg-28">
          <mxGeometry x="263.33000000000004" y="790" width="30" height="60" as="geometry" />
        </mxCell>
        <mxCell id="GdL6Ldw19PfFGsnGd9zg-56" style="edgeStyle=orthogonalEdgeStyle;rounded=0;orthogonalLoop=1;jettySize=auto;html=1;fillColor=#6a00ff;strokeColor=#3700CC;endArrow=none;endFill=0;" edge="1" parent="GdL6Ldw19PfFGsnGd9zg-28" target="GdL6Ldw19PfFGsnGd9zg-39">
          <mxGeometry relative="1" as="geometry">
            <mxPoint x="-90" y="203.32" as="sourcePoint" />
            <mxPoint x="256.4010400000001" y="606.68" as="targetPoint" />
            <Array as="points">
              <mxPoint x="-130" y="203" />
              <mxPoint x="-130" y="473" />
              <mxPoint x="300" y="473" />
            </Array>
          </mxGeometry>
        </mxCell>
        <mxCell id="GdL6Ldw19PfFGsnGd9zg-30" value="Участник" style="shape=umlActor;verticalLabelPosition=bottom;verticalAlign=top;html=1;outlineConnect=0;" vertex="1" parent="GdL6Ldw19PfFGsnGd9zg-28">
          <mxGeometry x="-90" y="170" width="30" height="60" as="geometry" />
        </mxCell>
        <mxCell id="GdL6Ldw19PfFGsnGd9zg-55" style="edgeStyle=orthogonalEdgeStyle;rounded=0;orthogonalLoop=1;jettySize=auto;html=1;endArrow=none;endFill=0;strokeColor=#00CC66;" edge="1" parent="GdL6Ldw19PfFGsnGd9zg-28" source="GdL6Ldw19PfFGsnGd9zg-31" target="GdL6Ldw19PfFGsnGd9zg-39">
          <mxGeometry relative="1" as="geometry">
            <mxPoint x="-440" y="380" as="sourcePoint" />
            <mxPoint x="-94.94736842105249" y="610.3545635690302" as="targetPoint" />
            <Array as="points">
              <mxPoint x="-40" y="330" />
              <mxPoint x="-40" y="450" />
              <mxPoint x="270" y="450" />
            </Array>
          </mxGeometry>
        </mxCell>
        <mxCell id="GdL6Ldw19PfFGsnGd9zg-87" style="edgeStyle=orthogonalEdgeStyle;rounded=0;orthogonalLoop=1;jettySize=auto;html=1;endArrow=none;endFill=0;strokeColor=#00CC66;" edge="1" parent="GdL6Ldw19PfFGsnGd9zg-28" source="GdL6Ldw19PfFGsnGd9zg-31" target="GdL6Ldw19PfFGsnGd9zg-82">
          <mxGeometry relative="1" as="geometry">
            <Array as="points">
              <mxPoint x="90" y="330" />
            </Array>
          </mxGeometry>
        </mxCell>
        <mxCell id="GdL6Ldw19PfFGsnGd9zg-31" value="Модератор" style="shape=umlActor;verticalLabelPosition=bottom;verticalAlign=top;html=1;outlineConnect=0;" vertex="1" parent="GdL6Ldw19PfFGsnGd9zg-28">
          <mxGeometry x="-90" y="310" width="30" height="60" as="geometry" />
        </mxCell>
        <mxCell id="GdL6Ldw19PfFGsnGd9zg-66" style="edgeStyle=orthogonalEdgeStyle;rounded=0;orthogonalLoop=1;jettySize=auto;html=1;exitX=0;exitY=0.5;exitDx=0;exitDy=0;dashed=1;" edge="1" parent="GdL6Ldw19PfFGsnGd9zg-28" source="GdL6Ldw19PfFGsnGd9zg-34" target="GdL6Ldw19PfFGsnGd9zg-65">
          <mxGeometry relative="1" as="geometry">
            <mxPoint x="256.66999999999996" y="410" as="sourcePoint" />
            <mxPoint x="329.66999999999996" y="410" as="targetPoint" />
          </mxGeometry>
        </mxCell>
        <mxCell id="GdL6Ldw19PfFGsnGd9zg-67" value="include" style="edgeLabel;html=1;align=center;verticalAlign=middle;resizable=0;points=[];" connectable="0" vertex="1" parent="GdL6Ldw19PfFGsnGd9zg-66">
          <mxGeometry x="-0.0924" y="2" relative="1" as="geometry">
            <mxPoint y="-10" as="offset" />
          </mxGeometry>
        </mxCell>
        <mxCell id="GdL6Ldw19PfFGsnGd9zg-70" style="edgeStyle=orthogonalEdgeStyle;rounded=0;orthogonalLoop=1;jettySize=auto;html=1;dashed=1;entryX=0.261;entryY=0.087;entryDx=0;entryDy=0;entryPerimeter=0;" edge="1" parent="GdL6Ldw19PfFGsnGd9zg-28" source="GdL6Ldw19PfFGsnGd9zg-64" target="GdL6Ldw19PfFGsnGd9zg-58">
          <mxGeometry relative="1" as="geometry">
            <mxPoint x="336.67" y="430" as="sourcePoint" />
            <mxPoint x="409.67" y="430" as="targetPoint" />
            <Array as="points">
              <mxPoint x="470" y="230" />
            </Array>
          </mxGeometry>
        </mxCell>
        <mxCell id="GdL6Ldw19PfFGsnGd9zg-71" value="extend" style="edgeLabel;html=1;align=center;verticalAlign=middle;resizable=0;points=[];" connectable="0" vertex="1" parent="GdL6Ldw19PfFGsnGd9zg-70">
          <mxGeometry x="-0.0924" y="2" relative="1" as="geometry">
            <mxPoint y="-6" as="offset" />
          </mxGeometry>
        </mxCell>
        <mxCell id="GdL6Ldw19PfFGsnGd9zg-72" style="edgeStyle=orthogonalEdgeStyle;rounded=0;orthogonalLoop=1;jettySize=auto;html=1;fillColor=#6a00ff;strokeColor=#3700CC;endArrow=none;endFill=0;entryX=0.5;entryY=0;entryDx=0;entryDy=0;entryPerimeter=0;exitX=0.5;exitY=0;exitDx=0;exitDy=0;" edge="1" parent="GdL6Ldw19PfFGsnGd9zg-28" source="GdL6Ldw19PfFGsnGd9zg-34" target="GdL6Ldw19PfFGsnGd9zg-30">
          <mxGeometry relative="1" as="geometry">
            <mxPoint x="-280" y="40" as="sourcePoint" />
            <mxPoint x="-280" y="150" as="targetPoint" />
            <Array as="points">
              <mxPoint x="488" y="80" />
              <mxPoint x="-75" y="80" />
            </Array>
          </mxGeometry>
        </mxCell>
        <mxCell id="GdL6Ldw19PfFGsnGd9zg-75" style="edgeStyle=orthogonalEdgeStyle;rounded=0;orthogonalLoop=1;jettySize=auto;html=1;endArrow=none;endFill=0;strokeColor=#00CC66;entryX=0;entryY=0.5;entryDx=0;entryDy=0;exitX=1;exitY=0.3333333333333333;exitDx=0;exitDy=0;exitPerimeter=0;" edge="1" parent="GdL6Ldw19PfFGsnGd9zg-28" source="GdL6Ldw19PfFGsnGd9zg-31" target="GdL6Ldw19PfFGsnGd9zg-58">
          <mxGeometry relative="1" as="geometry">
            <mxPoint x="-170" y="496" as="sourcePoint" />
            <mxPoint x="405" y="360" as="targetPoint" />
            <Array as="points">
              <mxPoint x="390" y="330" />
              <mxPoint x="390" y="278" />
            </Array>
          </mxGeometry>
        </mxCell>
        <mxCell id="GdL6Ldw19PfFGsnGd9zg-76" style="edgeStyle=orthogonalEdgeStyle;rounded=0;orthogonalLoop=1;jettySize=auto;html=1;fillColor=#6a00ff;strokeColor=#3700CC;endArrow=none;endFill=0;entryX=0.5;entryY=1;entryDx=0;entryDy=0;" edge="1" parent="GdL6Ldw19PfFGsnGd9zg-28">
          <mxGeometry relative="1" as="geometry">
            <mxPoint x="-90.05000000000001" y="203" as="sourcePoint" />
            <mxPoint x="498.3349999999998" y="312" as="targetPoint" />
            <Array as="points">
              <mxPoint x="-130" y="203" />
              <mxPoint x="-130" y="473" />
              <mxPoint x="300" y="473" />
              <mxPoint x="300" y="359" />
              <mxPoint x="498" y="359" />
            </Array>
          </mxGeometry>
        </mxCell>
        <mxCell id="GdL6Ldw19PfFGsnGd9zg-77" value="Работа с другими участниками в рамках активности" style="ellipse;whiteSpace=wrap;html=1;" vertex="1" parent="GdL6Ldw19PfFGsnGd9zg-28">
          <mxGeometry x="20" y="105" width="125" height="75" as="geometry" />
        </mxCell>
        <mxCell id="GdL6Ldw19PfFGsnGd9zg-78" style="edgeStyle=orthogonalEdgeStyle;rounded=0;orthogonalLoop=1;jettySize=auto;html=1;fillColor=#6a00ff;strokeColor=#3700CC;endArrow=none;endFill=0;" edge="1" parent="GdL6Ldw19PfFGsnGd9zg-28" source="GdL6Ldw19PfFGsnGd9zg-77">
          <mxGeometry relative="1" as="geometry">
            <mxPoint x="20" y="143" as="sourcePoint" />
            <mxPoint x="-75" y="170" as="targetPoint" />
            <Array as="points">
              <mxPoint x="80" y="80" />
              <mxPoint x="-75" y="80" />
            </Array>
          </mxGeometry>
        </mxCell>
        <mxCell id="GdL6Ldw19PfFGsnGd9zg-79" value="Регистрация в системе" style="ellipse;whiteSpace=wrap;html=1;" vertex="1" parent="GdL6Ldw19PfFGsnGd9zg-28">
          <mxGeometry x="28.329999999999984" y="200" width="116.67" height="70" as="geometry" />
        </mxCell>
        <mxCell id="GdL6Ldw19PfFGsnGd9zg-80" style="edgeStyle=orthogonalEdgeStyle;rounded=0;orthogonalLoop=1;jettySize=auto;html=1;fillColor=#6a00ff;strokeColor=#3700CC;endArrow=none;endFill=0;exitX=0;exitY=0.5;exitDx=0;exitDy=0;" edge="1" parent="GdL6Ldw19PfFGsnGd9zg-28" source="GdL6Ldw19PfFGsnGd9zg-79" target="GdL6Ldw19PfFGsnGd9zg-30">
          <mxGeometry relative="1" as="geometry">
            <mxPoint x="90" y="115" as="sourcePoint" />
            <mxPoint x="-65" y="180" as="targetPoint" />
            <Array as="points">
              <mxPoint x="-40" y="235" />
              <mxPoint x="-40" y="210" />
            </Array>
          </mxGeometry>
        </mxCell>
        <mxCell id="GdL6Ldw19PfFGsnGd9zg-81" style="edgeStyle=orthogonalEdgeStyle;rounded=0;orthogonalLoop=1;jettySize=auto;html=1;endArrow=none;endFill=0;strokeColor=#00CC66;" edge="1" parent="GdL6Ldw19PfFGsnGd9zg-28" target="GdL6Ldw19PfFGsnGd9zg-79">
          <mxGeometry relative="1" as="geometry">
            <mxPoint x="-50" y="330" as="sourcePoint" />
            <mxPoint x="243.33500000000004" y="330" as="targetPoint" />
            <Array as="points">
              <mxPoint x="90" y="330" />
            </Array>
          </mxGeometry>
        </mxCell>
        <mxCell id="GdL6Ldw19PfFGsnGd9zg-82" value="Регистрация на мероприятие" style="ellipse;whiteSpace=wrap;html=1;" vertex="1" parent="GdL6Ldw19PfFGsnGd9zg-28">
          <mxGeometry x="20" y="364" width="100.01" height="60" as="geometry" />
        </mxCell>
        <mxCell id="GdL6Ldw19PfFGsnGd9zg-83" value="Выбор активности для модерации" style="ellipse;whiteSpace=wrap;html=1;" vertex="1" parent="GdL6Ldw19PfFGsnGd9zg-28">
          <mxGeometry x="180" y="364" width="100.01" height="60" as="geometry" />
        </mxCell>
        <mxCell id="GdL6Ldw19PfFGsnGd9zg-90" style="edgeStyle=orthogonalEdgeStyle;rounded=0;orthogonalLoop=1;jettySize=auto;html=1;exitX=1;exitY=0.5;exitDx=0;exitDy=0;dashed=1;" edge="1" parent="GdL6Ldw19PfFGsnGd9zg-28" source="GdL6Ldw19PfFGsnGd9zg-82" target="GdL6Ldw19PfFGsnGd9zg-83">
          <mxGeometry relative="1" as="geometry">
            <mxPoint x="93" y="430" as="sourcePoint" />
            <mxPoint x="10" y="430" as="targetPoint" />
          </mxGeometry>
        </mxCell>
        <mxCell id="GdL6Ldw19PfFGsnGd9zg-91" value="include" style="edgeLabel;html=1;align=center;verticalAlign=middle;resizable=0;points=[];" connectable="0" vertex="1" parent="GdL6Ldw19PfFGsnGd9zg-90">
          <mxGeometry x="-0.0924" y="2" relative="1" as="geometry">
            <mxPoint y="-10" as="offset" />
          </mxGeometry>
        </mxCell>
        <mxCell id="GdL6Ldw19PfFGsnGd9zg-92" value="Просмотр информации об активностях в рамках мероприятия" style="ellipse;whiteSpace=wrap;html=1;" vertex="1" parent="GdL6Ldw19PfFGsnGd9zg-28">
          <mxGeometry x="770" y="290" width="130" height="80" as="geometry" />
        </mxCell>
        <mxCell id="GdL6Ldw19PfFGsnGd9zg-49" style="edgeStyle=orthogonalEdgeStyle;rounded=0;orthogonalLoop=1;jettySize=auto;html=1;endArrow=none;endFill=0;fillColor=#1ba1e2;strokeColor=#006EAF;exitX=1;exitY=0.5;exitDx=0;exitDy=0;" edge="1" parent="GdL6Ldw19PfFGsnGd9zg-28" source="GdL6Ldw19PfFGsnGd9zg-92" target="GdL6Ldw19PfFGsnGd9zg-34">
          <mxGeometry relative="1" as="geometry">
            <mxPoint x="939.31" y="340" as="sourcePoint" />
            <mxPoint x="460" y="175" as="targetPoint" />
            <Array as="points">
              <mxPoint x="980" y="330" />
              <mxPoint x="980" y="360" />
              <mxPoint x="1140" y="360" />
              <mxPoint x="1140" y="120" />
            </Array>
          </mxGeometry>
        </mxCell>
        <mxCell id="GdL6Ldw19PfFGsnGd9zg-153" value="Добавление мероприятий" style="ellipse;whiteSpace=wrap;html=1;" vertex="1" parent="GdL6Ldw19PfFGsnGd9zg-28">
          <mxGeometry x="400" y="370" width="130" height="80" as="geometry" />
        </mxCell>
        <mxCell id="GdL6Ldw19PfFGsnGd9zg-193" value="Добавление активностей" style="ellipse;whiteSpace=wrap;html=1;" vertex="1" parent="GdL6Ldw19PfFGsnGd9zg-28">
          <mxGeometry x="320" y="490" width="130" height="80" as="geometry" />
        </mxCell>
        <mxCell id="GdL6Ldw19PfFGsnGd9zg-194" style="edgeStyle=orthogonalEdgeStyle;rounded=0;orthogonalLoop=1;jettySize=auto;html=1;dashed=1;" edge="1" parent="GdL6Ldw19PfFGsnGd9zg-28" source="GdL6Ldw19PfFGsnGd9zg-153" target="GdL6Ldw19PfFGsnGd9zg-193">
          <mxGeometry relative="1" as="geometry">
            <mxPoint x="623" y="634.5699999999999" as="sourcePoint" />
            <mxPoint x="540" y="634.5699999999999" as="targetPoint" />
            <Array as="points">
              <mxPoint x="380" y="410" />
            </Array>
          </mxGeometry>
        </mxCell>
        <mxCell id="GdL6Ldw19PfFGsnGd9zg-195" value="include" style="edgeLabel;html=1;align=center;verticalAlign=middle;resizable=0;points=[];" connectable="0" vertex="1" parent="GdL6Ldw19PfFGsnGd9zg-194">
          <mxGeometry x="-0.0924" y="2" relative="1" as="geometry">
            <mxPoint y="-10" as="offset" />
          </mxGeometry>
        </mxCell>
        <mxCell id="GdL6Ldw19PfFGsnGd9zg-196" value="Организация мероприятий" style="ellipse;whiteSpace=wrap;html=1;" vertex="1" parent="GdL6Ldw19PfFGsnGd9zg-28">
          <mxGeometry x="590" y="370" width="130" height="80" as="geometry" />
        </mxCell>
        <mxCell id="GdL6Ldw19PfFGsnGd9zg-198" style="edgeStyle=orthogonalEdgeStyle;rounded=0;orthogonalLoop=1;jettySize=auto;html=1;dashed=1;exitX=0;exitY=0.5;exitDx=0;exitDy=0;" edge="1" parent="GdL6Ldw19PfFGsnGd9zg-28" source="GdL6Ldw19PfFGsnGd9zg-196" target="GdL6Ldw19PfFGsnGd9zg-153">
          <mxGeometry relative="1" as="geometry">
            <mxPoint x="567" y="550" as="sourcePoint" />
            <mxPoint x="490" y="550" as="targetPoint" />
            <Array as="points">
              <mxPoint x="570" y="410" />
              <mxPoint x="570" y="410" />
            </Array>
          </mxGeometry>
        </mxCell>
        <mxCell id="GdL6Ldw19PfFGsnGd9zg-199" value="include" style="edgeLabel;html=1;align=center;verticalAlign=middle;resizable=0;points=[];" connectable="0" vertex="1" parent="GdL6Ldw19PfFGsnGd9zg-198">
          <mxGeometry x="-0.0924" y="2" relative="1" as="geometry">
            <mxPoint y="-10" as="offset" />
          </mxGeometry>
        </mxCell>
        <mxCell id="GdL6Ldw19PfFGsnGd9zg-200" value="Редактирование данных мероприятия" style="ellipse;whiteSpace=wrap;html=1;" vertex="1" parent="GdL6Ldw19PfFGsnGd9zg-28">
          <mxGeometry x="580" y="500" width="130" height="80" as="geometry" />
        </mxCell>
        <mxCell id="GdL6Ldw19PfFGsnGd9zg-203" style="edgeStyle=orthogonalEdgeStyle;rounded=0;orthogonalLoop=1;jettySize=auto;html=1;dashed=1;entryX=0.5;entryY=1;entryDx=0;entryDy=0;" edge="1" parent="GdL6Ldw19PfFGsnGd9zg-28" source="GdL6Ldw19PfFGsnGd9zg-200" target="GdL6Ldw19PfFGsnGd9zg-196">
          <mxGeometry relative="1" as="geometry">
            <mxPoint x="461" y="600" as="sourcePoint" />
            <mxPoint x="590" y="619" as="targetPoint" />
            <Array as="points">
              <mxPoint x="655" y="490" />
              <mxPoint x="655" y="490" />
            </Array>
          </mxGeometry>
        </mxCell>
        <mxCell id="GdL6Ldw19PfFGsnGd9zg-204" value="extend" style="edgeLabel;html=1;align=center;verticalAlign=middle;resizable=0;points=[];" connectable="0" vertex="1" parent="GdL6Ldw19PfFGsnGd9zg-203">
          <mxGeometry x="-0.0924" y="2" relative="1" as="geometry">
            <mxPoint y="-6" as="offset" />
          </mxGeometry>
        </mxCell>
        <mxCell id="GdL6Ldw19PfFGsnGd9zg-253" value="Регистрация сопровождающих мероприятие" style="ellipse;whiteSpace=wrap;html=1;" vertex="1" parent="GdL6Ldw19PfFGsnGd9zg-28">
          <mxGeometry x="580" y="640" width="130" height="80" as="geometry" />
        </mxCell>
        <mxCell id="GdL6Ldw19PfFGsnGd9zg-255" value="Регистрация жюри" style="ellipse;whiteSpace=wrap;html=1;" vertex="1" parent="GdL6Ldw19PfFGsnGd9zg-28">
          <mxGeometry x="750" y="640" width="130" height="80" as="geometry" />
        </mxCell>
        <mxCell id="GdL6Ldw19PfFGsnGd9zg-256" style="edgeStyle=orthogonalEdgeStyle;rounded=0;orthogonalLoop=1;jettySize=auto;html=1;endArrow=block;endFill=0;exitX=1;exitY=0.5;exitDx=0;exitDy=0;" edge="1" parent="GdL6Ldw19PfFGsnGd9zg-28" source="GdL6Ldw19PfFGsnGd9zg-253" target="GdL6Ldw19PfFGsnGd9zg-255">
          <mxGeometry relative="1" as="geometry">
            <mxPoint x="470" y="740" as="sourcePoint" />
            <mxPoint x="470" y="720" as="targetPoint" />
            <Array as="points">
              <mxPoint x="720" y="680" />
              <mxPoint x="720" y="680" />
            </Array>
          </mxGeometry>
        </mxCell>
        <mxCell id="GdL6Ldw19PfFGsnGd9zg-257" value="Регистрация модератора" style="ellipse;whiteSpace=wrap;html=1;" vertex="1" parent="GdL6Ldw19PfFGsnGd9zg-28">
          <mxGeometry x="409.99999999999994" y="640" width="130" height="80" as="geometry" />
        </mxCell>
        <mxCell id="GdL6Ldw19PfFGsnGd9zg-258" style="edgeStyle=orthogonalEdgeStyle;rounded=0;orthogonalLoop=1;jettySize=auto;html=1;endArrow=block;endFill=0;" edge="1" parent="GdL6Ldw19PfFGsnGd9zg-28" source="GdL6Ldw19PfFGsnGd9zg-253" target="GdL6Ldw19PfFGsnGd9zg-257">
          <mxGeometry relative="1" as="geometry">
            <mxPoint x="540" y="690" as="sourcePoint" />
            <mxPoint x="570" y="690" as="targetPoint" />
            <Array as="points" />
          </mxGeometry>
        </mxCell>
        <mxCell id="GdL6Ldw19PfFGsnGd9zg-259" style="edgeStyle=orthogonalEdgeStyle;rounded=0;orthogonalLoop=1;jettySize=auto;html=1;dashed=1;" edge="1" parent="GdL6Ldw19PfFGsnGd9zg-28" source="GdL6Ldw19PfFGsnGd9zg-193" target="GdL6Ldw19PfFGsnGd9zg-200">
          <mxGeometry relative="1" as="geometry">
            <mxPoint x="488.16999999999996" y="570" as="sourcePoint" />
            <mxPoint x="488.16999999999996" y="520" as="targetPoint" />
            <Array as="points">
              <mxPoint x="480" y="540" />
              <mxPoint x="480" y="540" />
            </Array>
          </mxGeometry>
        </mxCell>
        <mxCell id="GdL6Ldw19PfFGsnGd9zg-260" value="extend" style="edgeLabel;html=1;align=center;verticalAlign=middle;resizable=0;points=[];" connectable="0" vertex="1" parent="GdL6Ldw19PfFGsnGd9zg-259">
          <mxGeometry x="-0.0924" y="2" relative="1" as="geometry">
            <mxPoint y="-6" as="offset" />
          </mxGeometry>
        </mxCell>
        <mxCell id="GdL6Ldw19PfFGsnGd9zg-197" style="edgeStyle=orthogonalEdgeStyle;rounded=0;orthogonalLoop=1;jettySize=auto;html=1;strokeColor=#B20000;endArrow=none;endFill=0;" edge="1" parent="1" source="GdL6Ldw19PfFGsnGd9zg-32" target="GdL6Ldw19PfFGsnGd9zg-196">
          <mxGeometry relative="1" as="geometry">
            <mxPoint x="920.0000000000002" y="360.0000000000001" as="targetPoint" />
            <Array as="points">
              <mxPoint x="975" y="340" />
            </Array>
          </mxGeometry>
        </mxCell>
        <mxCell id="GdL6Ldw19PfFGsnGd9zg-32" value="Организатор" style="shape=umlActor;verticalLabelPosition=bottom;verticalAlign=top;html=1;outlineConnect=0;" vertex="1" parent="1">
          <mxGeometry x="1340" y="330" width="30" height="60" as="geometry" />
        </mxCell>
        <mxCell id="GdL6Ldw19PfFGsnGd9zg-33" value="Жюри" style="shape=umlActor;verticalLabelPosition=bottom;verticalAlign=top;html=1;outlineConnect=0;" vertex="1" parent="1">
          <mxGeometry x="1340" y="470" width="30" height="60" as="geometry" />
        </mxCell>
        <mxCell id="GdL6Ldw19PfFGsnGd9zg-54" style="edgeStyle=orthogonalEdgeStyle;rounded=0;orthogonalLoop=1;jettySize=auto;html=1;entryX=1;entryY=1;entryDx=0;entryDy=0;fillColor=#e51400;strokeColor=#B20000;endArrow=none;endFill=0;" edge="1" parent="1" source="GdL6Ldw19PfFGsnGd9zg-32" target="GdL6Ldw19PfFGsnGd9zg-39">
          <mxGeometry relative="1" as="geometry">
            <mxPoint x="1470" y="830" as="targetPoint" />
            <Array as="points">
              <mxPoint x="1440" y="340" />
              <mxPoint x="1440" y="970" />
              <mxPoint x="680" y="970" />
              <mxPoint x="680" y="800" />
            </Array>
          </mxGeometry>
        </mxCell>
        <mxCell id="GdL6Ldw19PfFGsnGd9zg-60" style="edgeStyle=orthogonalEdgeStyle;rounded=0;orthogonalLoop=1;jettySize=auto;html=1;endArrow=none;endFill=0;fillColor=#e51400;strokeColor=#B20000;entryX=0.5;entryY=0;entryDx=0;entryDy=0;" edge="1" parent="1" source="GdL6Ldw19PfFGsnGd9zg-32" target="GdL6Ldw19PfFGsnGd9zg-58">
          <mxGeometry relative="1" as="geometry">
            <mxPoint x="1150" y="380" as="sourcePoint" />
            <mxPoint x="807" y="331" as="targetPoint" />
            <Array as="points">
              <mxPoint x="818" y="340" />
            </Array>
          </mxGeometry>
        </mxCell>
        <mxCell id="GdL6Ldw19PfFGsnGd9zg-53" style="edgeStyle=orthogonalEdgeStyle;rounded=0;orthogonalLoop=1;jettySize=auto;html=1;entryX=1;entryY=0.5;entryDx=0;entryDy=0;fillColor=#1ba1e2;strokeColor=#006EAF;endArrow=none;endFill=0;" edge="1" parent="1" source="GdL6Ldw19PfFGsnGd9zg-33" target="GdL6Ldw19PfFGsnGd9zg-39">
          <mxGeometry relative="1" as="geometry">
            <Array as="points">
              <mxPoint x="1355" y="950" />
              <mxPoint x="720" y="950" />
              <mxPoint x="720" y="775" />
            </Array>
          </mxGeometry>
        </mxCell>
        <mxCell id="GdL6Ldw19PfFGsnGd9zg-59" style="edgeStyle=orthogonalEdgeStyle;rounded=0;orthogonalLoop=1;jettySize=auto;html=1;endArrow=none;endFill=0;fillColor=#1ba1e2;strokeColor=#006EAF;entryX=1;entryY=0.5;entryDx=0;entryDy=0;exitX=0.5;exitY=0.5;exitDx=0;exitDy=0;exitPerimeter=0;" edge="1" parent="1" source="GdL6Ldw19PfFGsnGd9zg-33" target="GdL6Ldw19PfFGsnGd9zg-58">
          <mxGeometry relative="1" as="geometry">
            <mxPoint x="1309.31" y="510" as="sourcePoint" />
            <mxPoint x="811" y="345" as="targetPoint" />
            <Array as="points">
              <mxPoint x="1300" y="500" />
              <mxPoint x="1300" y="410" />
              <mxPoint x="877" y="410" />
            </Array>
          </mxGeometry>
        </mxCell>
        <mxCell id="GdL6Ldw19PfFGsnGd9zg-74" style="edgeStyle=orthogonalEdgeStyle;rounded=0;orthogonalLoop=1;jettySize=auto;html=1;endArrow=none;endFill=0;fillColor=#e51400;strokeColor=#B20000;" edge="1" parent="1" target="GdL6Ldw19PfFGsnGd9zg-34">
          <mxGeometry relative="1" as="geometry">
            <mxPoint x="1340" y="340" as="sourcePoint" />
            <mxPoint x="940" y="270" as="targetPoint" />
            <Array as="points">
              <mxPoint x="940" y="340" />
              <mxPoint x="940" y="280" />
            </Array>
          </mxGeometry>
        </mxCell>
        <mxCell id="GdL6Ldw19PfFGsnGd9zg-73" style="edgeStyle=orthogonalEdgeStyle;rounded=0;orthogonalLoop=1;jettySize=auto;html=1;endArrow=none;endFill=0;strokeColor=#00CC66;exitX=1;exitY=0.3333333333333333;exitDx=0;exitDy=0;exitPerimeter=0;" edge="1" parent="1" source="GdL6Ldw19PfFGsnGd9zg-31">
          <mxGeometry relative="1" as="geometry">
            <mxPoint x="325" y="460" as="sourcePoint" />
            <mxPoint x="833.335" y="315" as="targetPoint" />
            <Array as="points">
              <mxPoint x="505" y="470" />
              <mxPoint x="505" y="330" />
              <mxPoint x="833" y="330" />
            </Array>
          </mxGeometry>
        </mxCell>
        <mxCell id="GdL6Ldw19PfFGsnGd9zg-254" style="edgeStyle=orthogonalEdgeStyle;rounded=0;orthogonalLoop=1;jettySize=auto;html=1;entryX=0.5;entryY=1;entryDx=0;entryDy=0;fillColor=#e51400;strokeColor=#B20000;endArrow=none;endFill=0;" edge="1" parent="1">
          <mxGeometry relative="1" as="geometry">
            <mxPoint x="964" y="860" as="targetPoint" />
            <mxPoint x="1370" y="340" as="sourcePoint" />
            <Array as="points">
              <mxPoint x="1440" y="340" />
              <mxPoint x="1440" y="970" />
              <mxPoint x="964" y="970" />
            </Array>
          </mxGeometry>
        </mxCell>
      </root>
    </mxGraphModel>
  </diagram>
</mxfile>
